<mxfile host="drawio-plugin" modified="2022-09-04T09:35:15.551Z" agent="5.0 (X11; Linux x86_64) AppleWebKit/537.36 (KHTML, like Gecko) Chrome/98.0.4758.102 Safari/537.36" version="15.5.4" etag="nbuqCmKW_d_DrugnPSjz" type="embed"><diagram id="-Kn3t5EciEPvUc-Hu51d" name="Page-1"><mxGraphModel dx="1991" dy="728" grid="0" gridSize="9" guides="1" tooltips="1" connect="1" arrows="1" fold="1" page="0" pageScale="1" pageWidth="827" pageHeight="1169" background="#ffffff" math="0" shadow="1"><root><mxCell id="0"/><mxCell id="1" parent="0"/><mxCell id="31" value="" style="group" vertex="1" connectable="0" parent="1"><mxGeometry x="-12" y="88" width="783" height="174" as="geometry"/></mxCell><mxCell id="10" value="" style="group" vertex="1" connectable="0" parent="31"><mxGeometry x="27" width="189" height="60" as="geometry"/></mxCell><mxCell id="4" value="" style="group" vertex="1" connectable="0" parent="10"><mxGeometry width="140" height="60" as="geometry"/></mxCell><mxCell id="2" value="" style="rounded=0;whiteSpace=wrap;html=1;strokeColor=#000000;fillColor=#FFFFFF;strokeWidth=2;" vertex="1" parent="4"><mxGeometry x="100" width="40" height="60" as="geometry"/></mxCell><mxCell id="3" value="&lt;font color=&quot;#000000&quot; size=&quot;1&quot;&gt;&lt;b style=&quot;font-size: 20px&quot;&gt;40&lt;/b&gt;&lt;/font&gt;" style="rounded=0;whiteSpace=wrap;html=1;fillColor=#FFFFFF;strokeColor=#000000;strokeWidth=2;" vertex="1" parent="4"><mxGeometry width="100" height="60" as="geometry"/></mxCell><mxCell id="9" value="" style="endArrow=block;html=1;rounded=0;strokeColor=#000000;strokeWidth=4;startArrow=oval;startFill=1;endFill=1;" edge="1" parent="10"><mxGeometry width="50" height="50" relative="1" as="geometry"><mxPoint x="117" y="29.5" as="sourcePoint"/><mxPoint x="189" y="29.5" as="targetPoint"/></mxGeometry></mxCell><mxCell id="11" value="" style="group" vertex="1" connectable="0" parent="31"><mxGeometry x="216" width="189" height="60" as="geometry"/></mxCell><mxCell id="12" value="" style="group" vertex="1" connectable="0" parent="11"><mxGeometry width="140" height="60" as="geometry"/></mxCell><mxCell id="13" value="" style="rounded=0;whiteSpace=wrap;html=1;strokeColor=#000000;fillColor=#FFFFFF;strokeWidth=2;" vertex="1" parent="12"><mxGeometry x="100" width="40" height="60" as="geometry"/></mxCell><mxCell id="14" value="&lt;font color=&quot;#000000&quot; size=&quot;1&quot;&gt;&lt;b style=&quot;font-size: 20px&quot;&gt;15&lt;/b&gt;&lt;/font&gt;" style="rounded=0;whiteSpace=wrap;html=1;fillColor=#FFFFFF;strokeColor=#000000;strokeWidth=2;" vertex="1" parent="12"><mxGeometry width="100" height="60" as="geometry"/></mxCell><mxCell id="15" value="" style="endArrow=block;html=1;rounded=0;strokeColor=#000000;strokeWidth=4;startArrow=oval;startFill=1;endFill=1;" edge="1" parent="11"><mxGeometry width="50" height="50" relative="1" as="geometry"><mxPoint x="117" y="29.5" as="sourcePoint"/><mxPoint x="189" y="29.5" as="targetPoint"/></mxGeometry></mxCell><mxCell id="16" value="" style="group" vertex="1" connectable="0" parent="31"><mxGeometry x="405" width="189" height="60" as="geometry"/></mxCell><mxCell id="17" value="" style="group" vertex="1" connectable="0" parent="16"><mxGeometry width="140" height="60" as="geometry"/></mxCell><mxCell id="18" value="" style="rounded=0;whiteSpace=wrap;html=1;strokeColor=#000000;fillColor=#FFFFFF;strokeWidth=2;" vertex="1" parent="17"><mxGeometry x="100" width="40" height="60" as="geometry"/></mxCell><mxCell id="19" value="&lt;font color=&quot;#000000&quot; size=&quot;1&quot;&gt;&lt;b style=&quot;font-size: 20px&quot;&gt;7&lt;/b&gt;&lt;/font&gt;" style="rounded=0;whiteSpace=wrap;html=1;fillColor=#FFFFFF;strokeColor=#000000;strokeWidth=2;" vertex="1" parent="17"><mxGeometry width="100" height="60" as="geometry"/></mxCell><mxCell id="20" value="" style="endArrow=block;html=1;rounded=0;strokeColor=#000000;strokeWidth=4;startArrow=oval;startFill=1;endFill=1;" edge="1" parent="16"><mxGeometry width="50" height="50" relative="1" as="geometry"><mxPoint x="117" y="29.5" as="sourcePoint"/><mxPoint x="189" y="29.5" as="targetPoint"/></mxGeometry></mxCell><mxCell id="21" value="" style="group" vertex="1" connectable="0" parent="31"><mxGeometry x="594" width="189" height="60" as="geometry"/></mxCell><mxCell id="22" value="" style="group" vertex="1" connectable="0" parent="21"><mxGeometry width="140" height="60" as="geometry"/></mxCell><mxCell id="23" value="" style="rounded=0;whiteSpace=wrap;html=1;strokeColor=#000000;fillColor=#FFFFFF;strokeWidth=2;" vertex="1" parent="22"><mxGeometry x="100" width="40" height="60" as="geometry"/></mxCell><mxCell id="24" value="&lt;font color=&quot;#000000&quot; size=&quot;1&quot;&gt;&lt;b style=&quot;font-size: 20px&quot;&gt;4&lt;/b&gt;&lt;/font&gt;" style="rounded=0;whiteSpace=wrap;html=1;fillColor=#FFFFFF;strokeColor=#000000;strokeWidth=2;" vertex="1" parent="22"><mxGeometry width="100" height="60" as="geometry"/></mxCell><mxCell id="25" value="" style="endArrow=block;html=1;rounded=0;strokeColor=#000000;strokeWidth=4;startArrow=oval;startFill=1;endFill=1;" edge="1" parent="21"><mxGeometry width="50" height="50" relative="1" as="geometry"><mxPoint x="117" y="29.5" as="sourcePoint"/><mxPoint x="189" y="29.5" as="targetPoint"/></mxGeometry></mxCell><mxCell id="26" value="" style="endArrow=classic;html=1;rounded=0;fontSize=20;fontColor=#000000;strokeColor=#000000;strokeWidth=4;" edge="1" parent="31"><mxGeometry width="50" height="50" relative="1" as="geometry"><mxPoint x="27" y="135" as="sourcePoint"/><mxPoint x="27" y="60" as="targetPoint"/></mxGeometry></mxCell><mxCell id="27" value="Head" style="text;html=1;strokeColor=none;fillColor=none;align=center;verticalAlign=middle;whiteSpace=wrap;rounded=0;fontSize=20;fontColor=#000000;" vertex="1" parent="31"><mxGeometry y="144" width="60" height="30" as="geometry"/></mxCell></root></mxGraphModel></diagram></mxfile>